<svg xmlns="http://www.w3.org/2000/svg" width="100%" viewBox="0 0 900 780" role="img">
<title>Architettura AWS di Homedocs</title>
<desc>Route53 instrada il dominio verso un'istanza EC2 che ospita via Docker Compose Caddy, frontend, backend, servizio OCR, MongoDB e MinIO. EventBridge Scheduler con una Lambda ferma e riavvia l'istanza di notte. Un cron sull'istanza scrive backup giornalieri su S3. Backend e servizio OCR chiamano rispettivamente Brevo per le email e l'API Anthropic per l'estrazione dei documenti.</desc>
<defs>
<marker id="arrow" viewBox="0 0 10 10" refX="8" refY="5" markerWidth="6" markerHeight="6" orient="auto-start-reverse">
<path d="M2 1L8 5L2 9" fill="none" stroke="#5F5E5A" stroke-width="1.5" stroke-linecap="round" stroke-linejoin="round"/>
</marker>
</defs>

<rect x="0" y="0" width="900" height="780" fill="#FFFFFF"/>

<style>
text{font-family:-apple-system,BlinkMacSystemFont,'Segoe UI',Roboto,Helvetica,Arial,sans-serif;}
.t{font-size:14px;fill:#2C2C2A;}
.th{font-size:14px;font-weight:600;fill:#2C2C2A;}
.ts{font-size:12px;fill:#5F5E5A;}
.arr{stroke:#5F5E5A;stroke-width:1.5;fill:none;marker-end:url(#arrow);}
</style>

<!-- Utente -->
<rect x="370" y="20" width="160" height="44" rx="8" fill="#F1EFE8" stroke="#888780" stroke-width="0.5"/>
<text x="450" y="47" text-anchor="middle" class="t">Browser utente</text>
<line x1="450" y1="64" x2="450" y2="96" class="arr"/>

<!-- Route53 -->
<rect x="330" y="98" width="240" height="54" rx="8" fill="#E6F1FB" stroke="#185FA5" stroke-width="0.5"/>
<text x="450" y="120" text-anchor="middle" class="th" fill="#0C447C">Route53 (DNS)</text>
<text x="450" y="138" text-anchor="middle" class="ts" fill="#185FA5">homedocs.dev · api · storage</text>
<line x1="450" y1="152" x2="450" y2="184" class="arr"/>

<!-- AWS boundary -->
<rect x="40" y="186" width="820" height="420" rx="10" fill="none" stroke="#B4B2A9" stroke-width="1" stroke-dasharray="5,4"/>
<text x="56" y="208" class="ts" fill="#888780">AWS · eu-central-1</text>

<!-- EC2 boundary -->
<rect x="70" y="226" width="560" height="330" rx="10" fill="none" stroke="#888780" stroke-width="1" stroke-dasharray="4,3"/>
<text x="86" y="248" class="ts" fill="#5F5E5A">EC2 t4g.micro (arm64) · Elastic IP · 2 GB swap</text>

<!-- Caddy -->
<rect x="100" y="262" width="500" height="46" rx="8" fill="#E1F5EE" stroke="#0F6E56" stroke-width="0.5"/>
<text x="350" y="290" text-anchor="middle" class="th" fill="#085041">Caddy — reverse proxy · TLS Let's Encrypt</text>
<line x1="180" y1="308" x2="180" y2="330" class="arr"/>
<line x1="350" y1="308" x2="350" y2="330" class="arr"/>
<line x1="520" y1="308" x2="520" y2="330" class="arr"/>

<!-- Frontend / Backend / OCR-service -->
<rect x="110" y="332" width="140" height="50" rx="8" fill="#E1F5EE" stroke="#0F6E56" stroke-width="0.5"/>
<text x="180" y="352" text-anchor="middle" class="th" fill="#085041">Frontend</text>
<text x="180" y="368" text-anchor="middle" class="ts" fill="#0F6E56">Vue · nginx</text>

<rect x="280" y="332" width="140" height="50" rx="8" fill="#E1F5EE" stroke="#0F6E56" stroke-width="0.5"/>
<text x="350" y="352" text-anchor="middle" class="th" fill="#085041">Backend</text>
<text x="350" y="368" text-anchor="middle" class="ts" fill="#0F6E56">NestJS</text>

<rect x="450" y="332" width="140" height="50" rx="8" fill="#E1F5EE" stroke="#0F6E56" stroke-width="0.5"/>
<text x="520" y="352" text-anchor="middle" class="th" fill="#085041">OCR-service</text>
<text x="520" y="368" text-anchor="middle" class="ts" fill="#0F6E56">FastAPI</text>

<line x1="330" y1="382" x2="260" y2="412" class="arr"/>
<line x1="370" y1="382" x2="430" y2="412" class="arr"/>

<!-- MongoDB / MinIO -->
<rect x="190" y="414" width="140" height="50" rx="8" fill="#FAEEDA" stroke="#854F0B" stroke-width="0.5"/>
<text x="260" y="434" text-anchor="middle" class="th" fill="#633806">MongoDB</text>
<text x="260" y="450" text-anchor="middle" class="ts" fill="#854F0B">documenti, utenti, reminder</text>

<rect x="360" y="414" width="140" height="50" rx="8" fill="#FAEEDA" stroke="#854F0B" stroke-width="0.5"/>
<text x="430" y="434" text-anchor="middle" class="th" fill="#633806">MinIO</text>
<text x="430" y="450" text-anchor="middle" class="ts" fill="#854F0B">storage file (S3-compatible)</text>

<!-- backup.sh -->
<rect x="110" y="486" width="240" height="46" rx="8" fill="none" stroke="#B4B2A9" stroke-width="1" stroke-dasharray="4,3"/>
<text x="230" y="508" text-anchor="middle" class="t">backup.sh</text>
<text x="230" y="524" text-anchor="middle" class="ts">cron giornaliero 8:00</text>
<line x1="350" y1="509" x2="666" y2="322" class="arr"/>

<!-- S3 -->
<rect x="668" y="262" width="160" height="60" rx="8" fill="#E6F1FB" stroke="#185FA5" stroke-width="0.5"/>
<text x="748" y="286" text-anchor="middle" class="th" fill="#0C447C">S3</text>
<text x="748" y="303" text-anchor="middle" class="ts" fill="#185FA5">backup · 30gg retention</text>

<!-- EventBridge -->
<rect x="668" y="342" width="160" height="52" rx="8" fill="#E6F1FB" stroke="#185FA5" stroke-width="0.5"/>
<text x="748" y="364" text-anchor="middle" class="th" fill="#0C447C">EventBridge</text>
<text x="748" y="381" text-anchor="middle" class="ts" fill="#185FA5">schedule 00:00 · 07:00</text>
<line x1="748" y1="394" x2="748" y2="416" class="arr"/>

<!-- Lambda -->
<rect x="668" y="418" width="160" height="52" rx="8" fill="#E6F1FB" stroke="#185FA5" stroke-width="0.5"/>
<text x="748" y="440" text-anchor="middle" class="th" fill="#0C447C">Lambda</text>
<text x="748" y="457" text-anchor="middle" class="ts" fill="#185FA5">start / stop EC2</text>
<line x1="666" y1="444" x2="632" y2="400" class="arr"/>

<!-- IAM note -->
<text x="748" y="500" text-anchor="middle" class="ts" fill="#888780">IAM: permessi minimi</text>
<text x="748" y="515" text-anchor="middle" class="ts" fill="#888780">per risorsa dedicata</text>

<!-- Servizi esterni -->
<text x="60" y="638" class="ts" fill="#888780">Servizi esterni</text>
<rect x="150" y="650" width="240" height="60" rx="8" fill="#FAECE7" stroke="#993C1D" stroke-width="0.5"/>
<text x="270" y="675" text-anchor="middle" class="th" fill="#712B13">Brevo (SMTP)</text>
<text x="270" y="692" text-anchor="middle" class="ts" fill="#993C1D">email promemoria scadenze</text>

<rect x="510" y="650" width="240" height="60" rx="8" fill="#FAECE7" stroke="#993C1D" stroke-width="0.5"/>
<text x="630" y="675" text-anchor="middle" class="th" fill="#712B13">Anthropic API</text>
<text x="630" y="692" text-anchor="middle" class="ts" fill="#993C1D">estrazione OCR/AI documenti</text>

<path d="M350 382 C 300 500, 300 600, 270 648" class="arr"/>
<path d="M520 382 C 580 500, 610 600, 630 648" class="arr"/>

</svg>
